<svg width="180" height="55" viewBox="0 0 180 55" fill="none" xmlns="http://www.w3.org/2000/svg">
<path d="M142.185 24.4855C142.182 24.5005 142.243 24.4855 142.181 24.4855V38.6443H147.074V24.4855C146.955 24.4855 147.074 24.4855 147.06 24.4855C146.152 24.4855 145.507 24.4855 144.58 24.4855C143.69 24.4855 143.019 24.4855 142.185 24.4855Z" fill="black"/>
<path d="M147.251 20.0254C147.251 21.5032 146.063 22.7011 144.598 22.7011C143.133 22.7011 141.945 21.5032 141.945 20.0254C141.945 18.5477 143.133 17.3497 144.598 17.3497C146.063 17.3497 147.251 18.5477 147.251 20.0254Z" fill="black"/>
<path fill-rule="evenodd" clip-rule="evenodd" d="M155.678 34.368C155.678 34.4376 155.734 34.4941 155.803 34.4941C156.818 34.4941 159.039 34.3983 160.626 33.0574C161.769 32.0996 163.14 30.2797 163.14 27.9171C163.14 25.6188 161.769 24.1501 160.944 23.32C159.357 21.7237 157.294 21.5002 155.803 21.5002C155.734 21.5002 155.678 21.5566 155.678 21.6263V34.368ZM156.31 17.3497C159.103 17.3497 162.054 17.7648 164.657 20.287C166.529 22.1068 167.703 24.5971 167.703 27.9172C167.703 31.2695 166.561 33.696 164.816 35.4519C161.896 38.4208 158.246 38.6443 156.469 38.6443H150.79V17.3497H156.31Z" fill="black"/>
<path fill-rule="evenodd" clip-rule="evenodd" d="M155.393 1.04623C151.416 0.722867 147.417 1.27995 143.681 2.67774L143.165 2.87098L144.839 7.33269C145.316 8.60319 146.706 9.19736 147.953 8.85757C150.179 8.25103 152.499 8.03442 154.808 8.22219C157.727 8.4596 160.558 9.33754 163.098 10.7933C165.638 12.249 167.825 14.2466 169.503 16.6433C170.74 18.4112 171.678 20.3642 172.283 22.4238C172.718 23.9034 174.164 24.9833 175.76 24.7097L180 23.9828L179.906 23.4392C179.231 19.5128 177.696 15.7838 175.41 12.5183C173.125 9.25281 170.146 6.53147 166.685 4.54845C163.225 2.56542 159.369 1.36959 155.393 1.04623ZM139.254 10.0709L136.521 6.77249L136.098 7.12208C133.024 9.66124 130.549 12.8468 128.85 16.4514C127.151 20.056 126.27 23.9908 126.27 27.9747C126.27 31.9586 127.151 35.8933 128.85 39.4979C130.549 43.1026 133.024 46.2881 136.098 48.8273L136.521 49.1769L139.254 45.8784C140.291 44.6273 140.075 42.8284 139.005 41.7128C137.519 40.1638 136.29 38.381 135.371 36.4313C134.124 33.7859 133.478 30.8983 133.478 27.9747C133.478 25.0511 134.124 22.1635 135.371 19.518C136.29 17.5683 137.519 15.7856 139.005 14.2365C140.075 13.121 140.291 11.3221 139.254 10.0709ZM175.76 31.2041C174.164 30.9305 172.719 32.0104 172.283 33.49C171.678 35.5496 170.74 37.5026 169.503 39.2705C167.825 41.6672 165.638 43.6648 163.098 45.1205C160.558 46.5763 157.727 47.4542 154.808 47.6916C152.652 47.867 150.486 47.6897 148.397 47.1716C146.902 46.801 145.243 47.5059 144.674 49.0224L143.165 53.0428L143.681 53.2361C147.417 54.6339 151.416 55.1909 155.393 54.8676C159.369 54.5442 163.225 53.3484 166.685 51.3654C170.146 49.3823 173.125 46.661 175.41 43.3955C177.696 40.1301 179.231 36.401 179.906 32.4746L180 31.931L175.76 31.2041Z" fill="#0D51FF"/>
<path fill-rule="evenodd" clip-rule="evenodd" d="M10.8955 27.0499H21.1406V27.2628C21.1406 29.7263 20.2426 33.4671 17.952 35.8086C15.6619 38.1505 13.0309 38.5766 10.5856 38.5766C8.10969 38.5766 5.44773 38.1809 3.03339 35.7478C1.82658 34.5313 0 32.0681 0 28.0231C0 24.7084 1.23847 22.062 2.97184 20.3288C5.50928 17.7436 8.63589 17.3787 11.0808 17.3787C12.7832 17.3787 14.95 17.6524 16.8687 18.8993C18.2619 19.8118 19.4691 21.2412 20.2116 22.5186L15.9098 24.7992C15.5071 24.0085 14.8884 23.1877 14.0833 22.6095C13.155 21.9407 12.1026 21.6362 10.9264 21.6362C9.03828 21.6362 7.64539 22.2448 6.65454 23.2786C5.50928 24.465 4.89057 26.1983 4.89057 28.0839C4.89057 30.3954 5.75761 31.8856 6.62359 32.7372C7.83111 33.9538 9.224 34.3187 10.8026 34.3187C12.8451 34.3187 13.9285 33.6192 14.3928 33.2238C14.5476 33.1022 15.4762 32.3114 15.8785 30.8212H10.8955V27.0499Z" fill="black"/>
<path fill-rule="evenodd" clip-rule="evenodd" d="M29.9956 17.3787V34.4453H36.6279V38.5766H25.0612V17.3787H29.9956Z" fill="black"/>
<path fill-rule="evenodd" clip-rule="evenodd" d="M45.8388 23.4891C44.9411 24.3407 44.0126 25.8309 44.0126 28.0815C44.0126 29.9368 44.6313 31.4267 45.9007 32.6432C47.2317 33.8902 48.7174 34.316 50.3266 34.316C52.4314 34.316 53.9175 33.5557 54.9077 32.5828C55.7124 31.8221 56.7029 30.393 56.7029 28.0511C56.7029 25.9526 55.8362 24.4015 54.9077 23.4891C53.8866 22.5158 52.2461 21.7555 50.3579 21.7555C48.5623 21.7555 46.9531 22.3942 45.8388 23.4891ZM58.3744 20.3869C60.3244 22.2421 61.5931 24.9185 61.5931 28.0511C61.5931 30.758 60.603 33.5256 58.3744 35.6542C56.4553 37.479 53.8552 38.6347 50.3889 38.6347C46.5197 38.6347 43.8887 37.1141 42.3411 35.6542C40.3604 33.8294 39.122 31.0925 39.122 28.112C39.122 25.1923 40.453 22.2421 42.3101 20.4173C43.7034 19.0487 46.2718 17.4371 50.3889 17.4371C53.6076 17.4371 56.3005 18.4104 58.3744 20.3869Z" fill="black"/>
<path fill-rule="evenodd" clip-rule="evenodd" d="M70.4612 34.7628H71.6579C72.9194 34.7628 74.4392 34.7311 75.3453 33.9047C75.7981 33.4916 76.0569 32.8877 76.0569 32.125C76.0569 31.2669 75.7011 30.6948 75.3776 30.4088C74.5043 29.6142 72.8223 29.6142 71.8196 29.6142H70.4612V34.7628ZM70.4612 25.9911H71.2698C71.949 25.9911 73.0811 25.8961 73.7923 25.3876C74.2455 25.0698 74.666 24.4342 74.666 23.5125C74.666 22.5909 74.2132 22.0188 73.8247 21.7328C73.1135 21.1925 72.1431 21.1925 71.2374 21.1925H70.4612V25.9911ZM72.1431 17.3787C73.3072 17.3787 75.9598 17.4426 77.6418 18.9995C79.0323 20.3026 79.194 22.0823 79.194 23.004C79.194 23.8303 79.0646 24.7838 78.4824 25.7051C77.9325 26.5953 77.189 27.0403 76.6714 27.2624C77.7065 27.4213 78.8709 27.9302 79.6468 28.6926C80.3584 29.3918 81.0377 30.5995 81.0377 32.4746C81.0377 34.6039 80.1967 35.9388 79.3557 36.7651C77.5767 38.4495 74.9891 38.5766 73.6633 38.5766H65.5447V17.3787H72.1431Z" fill="black"/>
<path fill-rule="evenodd" clip-rule="evenodd" d="M96.8716 30.8914L94.2052 23.736L91.5068 30.8914H96.8716ZM98.2367 34.6606H90.0441L88.3856 38.6858H83.184L91.9294 17.3788H96.5136L105.064 38.6858H99.8627L98.2367 34.6606Z" fill="black"/>
<path fill-rule="evenodd" clip-rule="evenodd" d="M113.301 17.3787V34.4453H120.487V38.5766H107.956V17.3787H113.301Z" fill="black"/>
</svg>
